{
  "extensionsUsed": [
    "KHR_lights_punctual"
  ],
  "accessors": [
    {
      "bufferView": 0,
      "componentType": 5126,
      "count": 336,
      "type": "VEC3",
      "max": [
        1.1622109413146973,
        2.1135902404785156,
        3.1500074863433838
      ],
      "min": [
        -1.1622116565704346,
        -1.5258788721439487E-07,
        -0.16221222281455994
      ]
    },
    {
      "bufferView": 1,
      "componentType": 5126,
      "count": 336,
      "type": "VEC3",
      "max": [
        1.0,
        1.0,
        1.0
      ],
      "min": [
        -1.0,
        -1.0,
        -1.0
      ]
    },
    {
      "bufferView": 2,
      "componentType": 5126,
      "count": 336,
      "type": "VEC4",
      "max": [
        1.0,
        1.0,
        1.0,
        1.0
      ],
      "min": [
        -1.0,
        -1.0,
        -1.0,
        -1.0
      ]
    },
    {
      "bufferView": 3,
      "componentType": 5126,
      "count": 336,
      "type": "VEC2",
      "max": [
        0.6632615327835083,
        0.99274057149887085
      ],
      "min": [
        0.0052760173566639423,
        0.0051963329315185547
      ]
    },
    {
      "bufferView": 4,
      "componentType": 5123,
      "count": 600,
      "type": "SCALAR",
      "max": [
        335.0
      ],
      "min": [
        0.0
      ]
    }
  ],
  "asset": {
    "version": "2.0"
  },
  "buffers": [
    {
      "uri": "scene.bin",
      "byteLength": 17328
    }
  ],
  "bufferViews": [
    {
      "buffer": 0,
      "byteLength": 4032
    },
    {
      "buffer": 0,
      "byteOffset": 4032,
      "byteLength": 4032
    },
    {
      "buffer": 0,
      "byteOffset": 8064,
      "byteLength": 5376
    },
    {
      "buffer": 0,
      "byteOffset": 13440,
      "byteLength": 2688
    },
    {
      "buffer": 0,
      "byteOffset": 16128,
      "byteLength": 1200
    }
  ],
  "cameras": [
    {
      "perspective": {
        "aspectRatio": 1.3333333730697632,
        "yfov": 1.0471975803375244,
        "zfar": 1000.1340942382813,
        "znear": 0.30000001192092896
      },
      "type": "perspective",
      "name": "Main Camera"
    }
  ],
  "images": [
    {
      "uri": "Pier.png",
      "name": "Pier"
    }
  ],
  "materials": [
    {
      "pbrMetallicRoughness": {
        "baseColorTexture": {
          "index": 0
        },
        "metallicFactor": 0.0
      },
      "doubleSided": true,
      "name": "Pier"
    }
  ],
  "meshes": [
    {
      "primitives": [
        {
          "attributes": {
            "POSITION": 0,
            "NORMAL": 1,
            "TANGENT": 2,
            "TEXCOORD_0": 3
          },
          "indices": 4,
          "material": 0
        }
      ],
      "name": "pier_end_A"
    }
  ],
  "nodes": [
    {
      "camera": 0,
      "translation": [
        -1.08,
        1.63,
        -11.27
      ],
      "name": "Main Camera"
    },
    {
      "mesh": 0,
      "rotation": [
        2.18556941E-08,
        0.0,
        0.0,
        1.0
      ],
      "translation": [
        -2.71796536,
        -0.6747117,
        -5.089875
      ],
      "name": "pier_end_A"
    },
    {
      "rotation": [
        0.109381631,
        0.8754261,
        0.408217877,
        -0.234569684
      ],
      "translation": [
        0.0,
        3.0,
        0.0
      ],
      "extensions": {
        "KHR_lights_punctual": {
          "light": 0
        }
      },
      "name": "Directional Light"
    },
    {
      "name": "Cognitive3D_Manager"
    }
  ],
  "samplers": [
    {}
  ],
  "scene": 0,
  "scenes": [
    {
      "nodes": [
        0,
        1,
        2,
        3
      ],
      "name": "scene"
    }
  ],
  "textures": [
    {
      "sampler": 0,
      "source": 0,
      "name": "Pier"
    }
  ],
  "extensions": {
    "KHR_lights_punctual": {
      "lights": [
        {
          "type": "directional",
          "color": [
            1.0,
            0.956862748,
            0.8392157
          ],
          "name": "Directional Light"
        }
      ]
    }
  }
}