{
  "extensionsUsed": [
    "KHR_lights_punctual"
  ],
  "accessors": [
    {
      "bufferView": 0,
      "componentType": 5126,
      "count": 88,
      "type": "VEC3",
      "max": [
        0.5,
        1.0,
        0.50000005960464478
      ],
      "min": [
        -0.50000011920928955,
        -1.0,
        -0.5000002384185791
      ]
    },
    {
      "bufferView": 1,
      "componentType": 5126,
      "count": 88,
      "type": "VEC3",
      "max": [
        1.0,
        1.0,
        1.0
      ],
      "min": [
        -1.0,
        -1.0,
        -1.0
      ]
    },
    {
      "bufferView": 2,
      "componentType": 5126,
      "count": 88,
      "type": "VEC4",
      "max": [
        1.0,
        0.0,
        1.0,
        1.0
      ],
      "min": [
        -1.0,
        0.0,
        -1.0,
        1.0
      ]
    },
    {
      "bufferView": 3,
      "componentType": 5126,
      "count": 88,
      "type": "VEC2",
      "max": [
        0.99974912405014038,
        0.99954628944396973
      ],
      "min": [
        0.00069368560798466206,
        0.00056922435760498047
      ]
    },
    {
      "bufferView": 4,
      "componentType": 5126,
      "count": 88,
      "type": "VEC2",
      "max": [
        0.99716836214065552,
        0.99739980697631836
      ],
      "min": [
        0.0043606190010905266,
        0.0021193623542785645
      ]
    },
    {
      "bufferView": 5,
      "componentType": 5121,
      "count": 240,
      "type": "SCALAR",
      "max": [
        87.0
      ],
      "min": [
        0.0
      ]
    }
  ],
  "asset": {
    "version": "2.0"
  },
  "buffers": [
    {
      "uri": "scene.bin",
      "byteLength": 5168
    }
  ],
  "bufferViews": [
    {
      "buffer": 0,
      "byteLength": 1056
    },
    {
      "buffer": 0,
      "byteOffset": 1056,
      "byteLength": 1056
    },
    {
      "buffer": 0,
      "byteOffset": 2112,
      "byteLength": 1408
    },
    {
      "buffer": 0,
      "byteOffset": 3520,
      "byteLength": 704
    },
    {
      "buffer": 0,
      "byteOffset": 4224,
      "byteLength": 704
    },
    {
      "buffer": 0,
      "byteOffset": 4928,
      "byteLength": 240
    }
  ],
  "cameras": [
    {
      "perspective": {
        "aspectRatio": 2.1952381134033203,
        "yfov": 1.0471975803375244,
        "zfar": 1000.1340942382813,
        "znear": 0.30000001192092896
      },
      "type": "perspective",
      "name": "Main Camera"
    }
  ],
  "materials": [
    {
      "pbrMetallicRoughness": {
        "metallicFactor": 0.0,
        "roughnessFactor": 0.5
      },
      "name": "Default-Material"
    }
  ],
  "meshes": [
    {
      "primitives": [
        {
          "attributes": {
            "POSITION": 0,
            "NORMAL": 1,
            "TANGENT": 2,
            "TEXCOORD_0": 3,
            "TEXCOORD_1": 4
          },
          "indices": 5,
          "material": 0
        }
      ],
      "name": "Cylinder"
    }
  ],
  "nodes": [
    {
      "camera": 0,
      "translation": [
        2.46,
        -0.47,
        -4.53
      ],
      "name": "Main Camera"
    },
    {
      "rotation": [
        0.109381631,
        0.8754261,
        0.408217877,
        -0.234569684
      ],
      "translation": [
        0.0,
        3.0,
        0.0
      ],
      "extensions": {
        "KHR_lights_punctual": {
          "light": 0
        }
      },
      "name": "Directional Light"
    },
    {
      "mesh": 0,
      "name": "Cylinder"
    },
    {
      "name": "Cognitive3D_Manager"
    }
  ],
  "scene": 0,
  "scenes": [
    {
      "nodes": [
        0,
        1,
        2,
        3
      ],
      "name": "scene"
    }
  ],
  "extensions": {
    "KHR_lights_punctual": {
      "lights": [
        {
          "type": "directional",
          "color": [
            1.0,
            0.956862748,
            0.8392157
          ],
          "name": "Directional Light"
        }
      ]
    }
  }
}